<svg width="55" height="55" viewBox="0 0 55 55" fill="none" xmlns="http://www.w3.org/2000/svg">
<rect y="0.15686" width="55" height="54" rx="27" fill="url(#paint0_linear_2083_780)"/>
<path d="M39.5929 15.9709H15.4071C14.9113 15.9709 14.5001 15.5598 14.5001 15.064C14.5001 14.5681 14.9113 14.157 15.4071 14.157H39.5929C40.0887 14.157 40.4999 14.5681 40.4999 15.064C40.4999 15.5598 40.0887 15.9709 39.5929 15.9709Z" fill="white"/>
<path d="M33.1478 39.661C32.9906 39.9754 32.664 40.1568 32.3375 40.1568C32.2045 40.1568 32.0594 40.1205 31.9385 40.0601L27.5004 37.8471L23.0622 40.0601C22.9413 40.1205 22.7962 40.1568 22.6632 40.1568C22.3366 40.1568 22.0101 39.9754 21.8529 39.661C21.6232 39.2015 21.8046 38.6573 22.2641 38.4396L26.5934 36.275V33.2034H28.4073V36.275L32.7366 38.4396C33.1961 38.6573 33.3775 39.2015 33.1478 39.661Z" fill="white"/>
<path d="M16.6164 15.064V29.6964C16.6164 31.9941 17.8257 33.2033 20.1233 33.2033H34.8767C37.1744 33.2033 38.3837 31.9941 38.3837 29.6964V15.064H16.6164ZM33.5223 23.0211L29.713 26.2015C29.3623 26.4918 28.9149 26.6127 28.4916 26.5401C28.0563 26.4676 27.6814 26.2015 27.4517 25.8146L26.1819 23.6983L22.6387 26.649C22.4694 26.7941 22.2638 26.8546 22.0582 26.8546C21.8043 26.8546 21.5382 26.7457 21.3568 26.5281C21.0303 26.1411 21.0908 25.5727 21.4777 25.2462L25.287 22.0658C25.6377 21.7755 26.0852 21.6546 26.5084 21.7272C26.9437 21.7997 27.3186 22.0658 27.5484 22.4527L28.8182 24.569L32.3614 21.6183C32.7484 21.2918 33.3167 21.3523 33.6432 21.7393C33.9576 22.1262 33.9093 22.6946 33.5223 23.0211Z" fill="white"/>
<defs>
<linearGradient id="paint0_linear_2083_780" x1="49.5455" y1="50.3319" x2="8.87897" y2="3.12706" gradientUnits="userSpaceOnUse">
<stop stop-color="#007CBD"/>
<stop offset="1" stop-color="#3EB7DD"/>
</linearGradient>
</defs>
</svg>
