<svg width="55" height="55" viewBox="0 0 55 55" fill="none" xmlns="http://www.w3.org/2000/svg">
<rect y="0.15686" width="55" height="54" rx="27" fill="url(#paint0_linear_2083_770)"/>
<path d="M27.5 12.157C19.235 12.157 12.5 18.892 12.5 27.1569C12.5 35.4219 19.235 42.1569 27.5 42.1569C35.765 42.1569 42.4999 35.4219 42.4999 27.1569C42.4999 18.892 35.765 12.157 27.5 12.157ZM34.67 23.707L26.165 32.2119C25.955 32.4219 25.67 32.5419 25.37 32.5419C25.07 32.5419 24.785 32.4219 24.575 32.2119L20.33 27.9669C19.895 27.5319 19.895 26.8119 20.33 26.3769C20.765 25.9419 21.485 25.9419 21.92 26.3769L25.37 29.8269L33.08 22.117C33.515 21.682 34.235 21.682 34.67 22.117C35.105 22.552 35.105 23.257 34.67 23.707Z" fill="white"/>
<defs>
<linearGradient id="paint0_linear_2083_770" x1="49.5455" y1="50.3319" x2="8.87897" y2="3.12706" gradientUnits="userSpaceOnUse">
<stop stop-color="#007CBD"/>
<stop offset="1" stop-color="#3EB7DD"/>
</linearGradient>
</defs>
</svg>
