<svg width="55" height="55" viewBox="0 0 55 55" fill="none" xmlns="http://www.w3.org/2000/svg">
<rect y="0.15686" width="55" height="54" rx="27" fill="url(#paint0_linear_1738_1876)"/>
<path d="M32.7463 15.1569H22.2661C17.7139 15.1569 15 17.7609 15 22.1289V32.1729C15 36.5529 17.7139 39.1569 22.2661 39.1569H32.7338C37.2861 39.1569 40 36.5529 40 32.1849V22.1289C40.0125 17.7609 37.2986 15.1569 32.7463 15.1569ZM26.1931 33.7689C25.8304 34.1169 25.1426 34.4529 24.6423 34.5249L21.5658 34.9449C21.4532 34.9569 21.3407 34.9689 21.2281 34.9689C20.7153 34.9689 20.2401 34.8009 19.9024 34.4769C19.4897 34.0809 19.3147 33.5049 19.4147 32.8689L19.8524 29.9169C19.9275 29.4249 20.2651 28.7769 20.6403 28.4289L26.2181 23.0769C26.3181 23.3289 26.4182 23.5809 26.5558 23.8689C26.6808 24.1209 26.8184 24.3849 26.9685 24.6249C27.0935 24.8289 27.2311 25.0209 27.3437 25.1649C27.4812 25.3689 27.6438 25.5609 27.7438 25.6689C27.8064 25.7529 27.8564 25.8129 27.8814 25.8369C28.1941 26.1969 28.5568 26.5329 28.8694 26.7849C28.957 26.8689 29.007 26.9169 29.032 26.9289C29.2196 27.0729 29.4072 27.2169 29.5698 27.3249C29.7699 27.4689 29.97 27.6009 30.1826 27.7089C30.4327 27.8529 30.7078 27.9849 30.983 28.1169C31.2706 28.2369 31.5332 28.3449 31.7959 28.4289L26.1931 33.7689ZM34.2221 26.0649L33.0715 27.1809C32.9965 27.2529 32.8964 27.2889 32.7964 27.2889C32.7589 27.2889 32.7088 27.2889 32.6838 27.2769C30.145 26.5809 28.119 24.6369 27.3937 22.2009C27.3562 22.0689 27.3937 21.9249 27.4937 21.8409L28.6568 20.7249C30.5578 18.9009 32.3712 18.9369 34.2346 20.7249C35.1851 21.6369 35.6478 22.5129 35.6478 23.4249C35.6353 24.2889 35.1726 25.1529 34.2221 26.0649Z" fill="white"/>
<defs>
<linearGradient id="paint0_linear_1738_1876" x1="49.5455" y1="50.3319" x2="8.87897" y2="3.12706" gradientUnits="userSpaceOnUse">
<stop stop-color="#007CBD"/>
<stop offset="1" stop-color="#3EB7DD"/>
</linearGradient>
</defs>
</svg>
