<svg width="23" height="22" viewBox="0 0 23 22" fill="none" xmlns="http://www.w3.org/2000/svg">
<path d="M21.4691 2.07843L22.4669 2.01228C22.4403 1.61113 22.1761 1.26492 21.7962 1.13343C21.4163 1.00194 20.9946 1.11074 20.7257 1.40962L21.4691 2.07843ZM21.0428 6.30544C21.0428 5.75315 20.5951 5.30544 20.0428 5.30544C19.4905 5.30544 19.0428 5.75315 19.0428 6.30544H21.0428ZM11.5 7.57843V8.57843H12.5V7.57843H11.5ZM2.92637 2.07843L3.86287 1.72778C3.72334 1.35511 3.37612 1.10064 2.97873 1.0798C2.58133 1.05897 2.20941 1.27573 2.03166 1.63177L2.92637 2.07843ZM8.5 15.0784L9.20766 15.785C9.45238 15.5399 9.55284 15.1856 9.47321 14.8485C9.39358 14.5114 9.1452 14.2396 8.81667 14.1299L8.5 15.0784ZM1.5 17.7927V16.7927C1.05946 16.7927 0.670822 17.081 0.543011 17.5026C0.415201 17.9242 0.578333 18.3797 0.944707 18.6244L1.5 17.7927ZM18.9515 3.46897L18.2098 4.13966L18.5701 4.53815L19.1013 4.4577L18.9515 3.46897ZM20.4713 2.14458C20.544 3.24137 20.4734 3.87022 20.3125 4.3237C20.1591 4.75628 19.8897 5.12582 19.3509 5.64212L20.7346 7.08617C21.3745 6.47303 21.8944 5.84675 22.1974 4.99235C22.4931 4.15886 22.5463 3.20957 22.4669 2.01228L20.4713 2.14458ZM21.0428 7.34628V6.36414H19.0428V7.34628H21.0428ZM21.0428 6.36414V6.30544H19.0428V6.36414H21.0428ZM10.5 6.57843V7.57843H12.5V6.57843H10.5ZM15.8223 1.07843C12.8235 1.07843 10.5 3.67909 10.5 6.57843H12.5C12.5 4.67905 14.0298 3.07843 15.8223 3.07843V1.07843ZM19.0428 7.34628C19.0428 13.3721 13.9765 18.5784 8 18.5784V20.5784C15.1201 20.5784 21.0428 14.4372 21.0428 7.34628H19.0428ZM1.98986 2.42908C2.80654 4.61027 5.83814 8.57843 11.5 8.57843V6.57843C6.89202 6.57843 4.47256 3.35611 3.86287 1.72778L1.98986 2.42908ZM2.03166 1.63177C0.511097 4.6776 0.226447 7.70131 1.31373 10.3033C2.40104 12.9053 4.77867 14.8903 8.18333 16.027L8.81667 14.1299C5.80268 13.1237 3.96713 11.4658 3.1591 9.53216C2.35104 7.59841 2.4889 5.19354 3.82107 2.52509L2.03166 1.63177ZM7.79234 14.3719C6.98383 15.1817 4.60002 16.7927 1.5 16.7927V18.7927C5.24654 18.7927 8.11438 16.88 9.20766 15.785L7.79234 14.3719ZM19.6933 2.79829C18.7396 1.74362 17.358 1.07843 15.8223 1.07843V3.07843C16.7687 3.07843 17.6189 3.48623 18.2098 4.13966L19.6933 2.79829ZM19.1013 4.4577C20.2557 4.28286 21.3748 3.67845 22.2126 2.74724L20.7257 1.40962C20.1856 2.01004 19.4805 2.37745 18.8018 2.48025L19.1013 4.4577ZM0.944707 18.6244C3.30076 20.1975 5.57113 20.5784 8 20.5784V18.5784C5.81913 18.5784 3.97834 18.2451 2.05529 16.9611L0.944707 18.6244Z" fill="#007CBD"/>
</svg>
